<svg width="510.84415" height="459.41029" xmlns="http://www.w3.org/2000/svg" xmlns:svg="http://www.w3.org/2000/svg" xmlns:xlink="http://www.w3.org/1999/xlink">
 <defs>
  <linearGradient gradientTransform="translate(-9.2596241,38.869516)" id="gopher-iris">
   <stop stop-color="#394455" id="stop4317" offset="0"/>
  </linearGradient>
  <linearGradient id="gopher-nose">
   <stop stop-color="#e1d0cb" id="stop4263" offset="0"/>
  </linearGradient>
  <linearGradient gradientTransform="translate(-51.565329,-6.5647407)" id="gopher-eye">
   <stop stop-color="#ffffff" id="stop4178" offset="0"/>
  </linearGradient>
  <linearGradient gradientTransform="matrix(-9.2396759,3.126275,2.6719643,7.8969646,-2365.326,2281.3136)" id="gopher-lines">
   <stop stop-color="#394655" id="stop4166" offset="0"/>
  </linearGradient>
  <linearGradient y2="0.5" x2="1.02258" y1="0.5" x1="-0.02258" id="linearGradient4168" xlink:href="#gopher-lines"/>
  <linearGradient y2="0.5" x2="1.02258" y1="0.5" x1="-0.02258" id="linearGradient4180" xlink:href="#gopher-eye"/>
  <linearGradient y2="0.5" x2="1" y1="0.5" x1="0" id="linearGradient4796" xlink:href="#gopher-nose"/>
  <linearGradient y2="0.5" x2="1" y1="0.5" x1="0" id="linearGradient4808" xlink:href="#gopher-iris"/>
  <linearGradient y2="0.5" x2="1" y1="0.5" x1="0" id="linearGradient4821" xlink:href="#gopher-iris"/>
  <symbol id="svg_8" height="334" width="379" xmlns:svg="http://www.w3.org/2000/svg" xmlns="http://www.w3.org/2000/svg">
   <g>
    <title>Layer 1</title>
    <path d="m296.94,295.43c0,20.533 -47.56,37.176 -106.22,37.176c-58.67,0 -106.23,-16.643 -106.23,-37.176s47.558,-37.18 106.23,-37.18c58.66,0 106.22,16.65 106.22,37.18z" fill="#2080a3" id="svg_7" stroke-width="0"/>
    <g fill="#7DBBE6" id="svg_4">
     <path id="svg_6" d="m161.85,330.22l0,-26.5c0,-3.422 -0.619,-6.284 -1.653,-8.701c6.853,5.322 7.316,18.695 7.316,18.695l0,17.004c6.166,0.481 12.534,0.773 19.053,0.861l-0.172,-16.92c-0.944,-23.13 -20.769,-25.961 -20.769,-25.961c-7.245,-1.645 -7.137,1.991 -6.409,4.34c-7.108,-12.122 -26.158,-10.556 -26.158,-10.556c-6.611,2.357 -0.475,6.607 -0.475,6.607c10.387,3.775 11.33,15.105 11.33,15.105l0,23.622c5.72,0.98 11.71,1.79 17.94,2.4l-0.003,0.004z"/>
     <path id="svg_5" d="m245.4,282.48s-19.053,-1.566 -26.16,10.559c0.728,-2.35 0.839,-5.989 -6.408,-4.343c0,0 -19.824,2.832 -20.768,25.961l-0.174,16.946c6.509,-0.025 12.876,-0.254 19.054,-0.671l0,-17.219s0.465,-13.373 7.316,-18.695c-1.034,2.417 -1.653,5.278 -1.653,8.701l0,26.775c6.214,-0.544 12.211,-1.279 17.937,-2.188l0,-24.113s0.944,-11.33 11.33,-15.105c0,-0.01 6.13,-4.26 -0.48,-6.62l0.006,0.012z"/>
    </g>
    <path d="m378.18,141.32l0.28,-1.389c-31.162,-6.231 -63.141,-6.294 -82.487,-5.49c3.178,-11.451 4.134,-24.627 4.134,-39.32c0,-21.073 -7.917,-37.931 -20.77,-50.759c2.246,-7.25 5.246,-23.351 -2.996,-43.963c0,0 -14.541,-4.617 -47.431,17.396c-12.884,-3.22 -26.596,-4.81 -40.328,-4.81c-15.109,0 -30.376,1.924 -44.615,5.83c-33.94,-23.154 -48.923,-18.411 -48.923,-18.411c-9.78,24.457 -3.733,42.566 -1.896,47.063c-11.495,12.406 -18.513,28.243 -18.513,47.659c0,14.658 1.669,27.808 5.745,39.237c-19.511,-0.71 -50.323,-0.437 -80.373,5.572l0.276,1.389c30.231,-6.046 61.237,-6.256 80.629,-5.522c0.898,2.366 1.899,4.661 3.021,6.879c-19.177,0.618 -51.922,3.062 -83.303,11.915l0.387,1.36c31.629,-8.918 64.658,-11.301 83.649,-11.882c11.458,21.358 34.048,35.152 74.236,39.484c-5.704,3.833 -11.523,10.349 -13.881,21.374c-7.773,3.718 -32.379,12.793 -47.142,-12.599c0,0 -8.264,-15.109 -24.082,-16.292c0,0 -15.344,-0.235 -1.059,9.562c0,0 10.267,4.838 17.351,23.019c0,0 9.241,31.01 53.835,21.061l0,32.032s-0.943,11.33 -11.33,15.105c0,0 -6.137,4.249 0.475,6.606c0,0 28.792,2.361 28.792,-21.238l0,-34.929s-1.142,-13.852 5.663,-18.667l0,57.371s-0.47,13.688 -7.551,18.881c0,0 -4.723,8.494 5.663,6.137c0,0 19.824,-2.832 20.769,-25.961l0.449,-58.06l4.765,0l0.453,58.06c0.943,23.129 20.768,25.961 20.768,25.961c10.383,2.357 5.663,-6.137 5.663,-6.137c-7.08,-5.193 -7.551,-18.881 -7.551,-18.881l0,-56.876c6.801,5.296 5.663,18.171 5.663,18.171l0,34.929c0,23.6 28.793,21.238 28.793,21.238c6.606,-2.357 0.474,-6.606 0.474,-6.606c-10.386,-3.775 -11.33,-15.105 -11.33,-15.105l0,-45.786c0,-17.854 -7.518,-27.309 -14.87,-32.3c42.859,-4.25 63.426,-18.089 72.903,-39.591c18.773,0.516 52.557,2.803 84.873,11.919l0.384,-1.36c-32.131,-9.063 -65.692,-11.408 -84.655,-11.96c0.898,-2.172 1.682,-4.431 2.378,-6.755c19.25,-0.8 51.38,-0.79 82.66,5.46l-0.045,-0.021z" id="svg_3" fill="#96d6ff"/>
    <path d="m80.641,179.82c0,1.174 -1.376,2.122 -3.07,2.122c-1.693,0 -3.07,-0.948 -3.07,-2.122c0,-1.175 1.377,-2.127 3.07,-2.127c1.694,0 3.07,0.95 3.07,2.13l0,-0.003zm8.5,4.72c0,1.174 -1.376,2.122 -3.07,2.122c-1.693,0 -3.07,-0.948 -3.07,-2.122c0,-1.175 1.377,-2.127 3.07,-2.127c1.694,0 3.07,0.95 3.07,2.13l0,-0.003zm5.193,6.14c0,1.174 -1.376,2.122 -3.07,2.122c-1.693,0 -3.07,-0.948 -3.07,-2.122c0,-1.175 1.377,-2.127 3.07,-2.127c1.694,0 3.07,0.95 3.07,2.13l0,-0.003zm4.72,7.08c0,1.174 -1.376,2.122 -3.07,2.122c-1.693,0 -3.07,-0.948 -3.07,-2.122c0,-1.175 1.377,-2.127 3.07,-2.127c1.694,0 3.07,0.95 3.07,2.13l0,-0.003zm5.188,6.61c0,1.174 -1.376,2.122 -3.07,2.122c-1.693,0 -3.07,-0.948 -3.07,-2.122c0,-1.175 1.377,-2.127 3.07,-2.127c1.694,0 3.07,0.95 3.07,2.13l0,-0.003zm7.09,5.66c0,1.174 -1.376,2.122 -3.07,2.122c-1.693,0 -3.07,-0.948 -3.07,-2.122c0,-1.175 1.377,-2.127 3.07,-2.127c1.694,0 3.07,0.95 3.07,2.13l0,-0.003zm9.91,3.78c0,1.174 -1.376,2.122 -3.07,2.122c-1.693,0 -3.07,-0.948 -3.07,-2.122c0,-1.175 1.377,-2.127 3.07,-2.127c1.694,0 3.07,0.95 3.07,2.13l0,-0.003zm9.87,0c0,1.174 -1.376,2.122 -3.07,2.122c-1.693,0 -3.07,-0.948 -3.07,-2.122c0,-1.175 1.377,-2.127 3.07,-2.127c1.694,0 3.07,0.95 3.07,2.13l0,-0.003zm10.01,-1.64c0,1.174 -1.376,2.122 -3.07,2.122c-1.693,0 -3.07,-0.948 -3.07,-2.122c0,-1.175 1.377,-2.127 3.07,-2.127c1.694,0 3.07,0.95 3.07,2.13l0,-0.003z" fill="#C3E4D8" id="svg_2"/>
    <path d="m69.369,186.12l-3.066,10.683s-0.8,3.861 2.84,4.546c3.8,-0.074 3.486,-3.627 3.223,-4.781l-2.997,-10.448z" fill="#82b6c9" id="svg_1"/>
   </g>
  </symbol>
 </defs>
 <metadata id="metadata7">image/svg+xml</metadata>
 <g>
  <title>Layer 1</title>
  <g display="none" id="layer11">
   <rect fill="#e3e5e8" stroke-width="2.88878" stroke-linecap="round" stroke-miterlimit="4" y="-103.0988" x="-322.35903" height="607.73438" width="1080.4166" id="rect4879"/>
   <ellipse fill="#c5cacf" stroke-width="4.09883" stroke-linecap="round" stroke-miterlimit="4" ry="23.26308" rx="115.13808" cy="428.34522" cx="217.41956" id="path4875"/>
   <ellipse fill="#c5cacf" stroke-width="1.52919" stroke-linecap="round" stroke-miterlimit="4" id="ellipse4877" cx="446.7873" cy="414.42407" rx="42.95579" ry="8.67901"/>
  </g>
  <g display="inline" id="layer4">
   <rect clip-rule="nonzero" fill="url(#linearGradient4168)" fill-rule="nonzero" stroke="#000000" stroke-width="9.21053" stroke-miterlimit="4" stroke-dashoffset="0" y="-184.29267" x="701.30879" height="40.78947" width="40.78947" id="rect4162"/>
   <rect clip-rule="nonzero" fill="url(#linearGradient4180)" fill-rule="nonzero" stroke="#000000" stroke-width="9.21053" stroke-miterlimit="4" stroke-dashoffset="0" id="rect4170" width="40.78947" height="40.78947" x="746.30879" y="-184.29267"/>
   <rect clip-rule="nonzero" fill="#bce8ff" fill-rule="nonzero" stroke="#000000" stroke-width="9.21053" stroke-miterlimit="4" stroke-dashoffset="0" y="-119.29266" x="701.30879" height="40.78947" width="40.78947" id="rect4208"/>
   <rect clip-rule="nonzero" fill="#abccd9" fill-rule="nonzero" stroke="#000000" stroke-width="9.21053" stroke-miterlimit="4" stroke-dashoffset="0" transform="translate(-78.29650115966797,-206.2601318359375) scale(1,-1) " id="rect4223" width="40.78947" height="40.78947" x="824.60529" y="-127.75694"/>
   <rect clip-rule="nonzero" fill="#c3b0cb" fill-rule="nonzero" stroke="#000000" stroke-width="9.21053" stroke-miterlimit="4" stroke-dashoffset="0" y="-74.29266" x="701.30879" height="40.78947" width="40.78947" id="rect4227"/>
   <rect clip-rule="nonzero" fill="#e1d0cb" fill-rule="nonzero" stroke="#000000" stroke-width="9.21053" stroke-miterlimit="4" stroke-dashoffset="0" id="rect4231" width="40.78947" height="40.78947" x="746.30879" y="-74.29266"/>
   <rect clip-rule="nonzero" fill="#f5c3d2" fill-rule="nonzero" stroke="#000000" stroke-width="9.21053" stroke-miterlimit="4" stroke-dashoffset="0" y="-74.29266" x="791.30879" height="40.78947" width="40.78947" id="rect4233"/>
   <rect clip-rule="nonzero" fill="#cec4ad" fill-rule="nonzero" stroke="#000000" stroke-width="9.21053" stroke-miterlimit="4" stroke-dashoffset="0" id="rect4248" width="40.78947" height="40.78947" x="701.30879" y="-29.29266"/>
   <rect clip-rule="nonzero" fill="#96d6ff" fill-rule="nonzero" stroke="#000000" stroke-width="9.21053" stroke-miterlimit="4" stroke-dashoffset="0" y="-127.75694" x="869.60529" height="40.78947" width="40.78947" id="rect4263" transform="translate(-78.29650115966797,-206.2601318359375) scale(1,-1) "/>
   <rect clip-rule="nonzero" fill="#f2f2ce" fill-rule="nonzero" stroke="#000000" stroke-width="9.21053" stroke-miterlimit="4" stroke-dashoffset="0" y="-29.29266" x="746.30879" height="40.78947" width="40.78947" id="rect4267"/>
   <rect clip-rule="nonzero" fill="#24b8eb" fill-rule="nonzero" stroke="#000000" stroke-width="9.21053" stroke-miterlimit="4" stroke-dashoffset="0" transform="translate(-78.29650115966797,-206.2601318359375) scale(1,-1) " id="rect4280" width="40.78947" height="40.78947" x="779.60529" y="-327.75693"/>
   <rect clip-rule="nonzero" fill="#8aa9ff" fill-rule="nonzero" stroke="#000000" stroke-width="9.21053" stroke-miterlimit="4" stroke-dashoffset="0" y="80.70734" x="746.30879" height="40.78947" width="40.78947" id="rect4284"/>
   <rect clip-rule="nonzero" fill="#d4edf1" fill-rule="nonzero" stroke="#000000" stroke-width="9.21053" stroke-miterlimit="4" stroke-dashoffset="0" id="rect4297" width="40.78947" height="40.78947" x="701.30879" y="125.70734"/>
   <rect clip-rule="nonzero" fill="#394d54" fill-rule="nonzero" stroke="#000000" stroke-width="9.21053" stroke-miterlimit="4" stroke-dashoffset="0" y="35.70734" x="701.30879" height="40.78947" width="40.78947" id="rect4301"/>
   <rect clip-rule="nonzero" fill="#d6e2ff" fill-rule="nonzero" stroke="#000000" stroke-width="9.21053" stroke-miterlimit="4" stroke-dashoffset="0" y="125.70734" x="746.30879" height="40.78947" width="40.78947" id="rect4303"/>
  </g>
  <use x="181.82784" y="204.64801" transform="matrix(1.310632463812866,0,0,1.310632463812866,-226.6738110255435,-258.90991764415907) " xlink:href="#svg_8" id="svg_9"/>
  <g id="svg_10"/>
  <g stroke="null" display="inline" id="layer2">
   <g stroke="null" id="g4806" transform="matrix(0.34792350340336164,0,0,0.34792350340336164,-45.853250952420524,251.06833925416015) ">
    <path clip-rule="nonzero" fill="url(#gopher-lines)" fill-rule="nonzero" stroke-width="2" stroke-miterlimit="4" stroke-dashoffset="0" id="path4798" d="m1185.72948,-330.4585c-0.44046,14.77191 -4.12869,29.02667 -10.38967,42.25266c-6.26099,13.22599 -15.09198,25.42687 -25.80466,35.99686c-10.71268,10.57 -23.30432,19.50822 -37.11826,26.08983c-13.81394,6.58161 -28.85103,10.80263 -44.50193,11.8618c-15.65091,1.05917 -30.4406,-1.15844 -43.81781,-6.16756c-13.37721,-5.00911 -25.3405,-12.8075 -35.30087,-22.80416c-9.96037,-9.99666 -17.91599,-22.19037 -23.26581,-35.90798c-5.34983,-13.71761 -8.0915,-28.95913 -7.64195,-44.98105c0.44955,-16.02192 4.04447,-31.2937 10.1422,-45.07896c6.09773,-13.78526 14.69591,-26.08175 25.16951,-36.25747c10.4736,-10.17571 22.82245,-18.23043 36.46168,-23.66123c13.63924,-5.4308 28.57214,-8.24285 44.22923,-8.02541c15.6571,0.21745 30.56095,3.42714 44.11009,8.94154c13.54914,5.5144 25.7404,13.33722 35.92568,22.91495c10.18529,9.57774 18.36233,20.91345 23.87736,33.53282c5.51504,12.61936 8.36566,26.52144 7.92521,41.29336z"/>
    <path clip-rule="nonzero" fill="url(#gopher-eye)" fill-rule="nonzero" stroke-width="2" stroke-miterlimit="4" stroke-dashoffset="0" id="path4800" d="m1178.02441,-333.83304c0.001,13.89984 -3.01572,27.53808 -8.51346,40.35257c-5.49774,12.81449 -13.48047,24.80543 -23.37659,35.2527c-9.89612,10.44726 -21.70519,19.34133 -34.78531,25.87862c-13.08011,6.53727 -27.4256,10.71236 -42.3773,11.7667c-14.9517,1.05435 -29.09103,-1.11258 -41.85904,-5.93108c-12.76803,-4.81852 -24.16883,-12.28715 -33.66552,-21.79076c-9.49671,-9.50362 -17.08979,-21.04298 -22.23241,-33.95465c-5.14261,-12.91166 -7.83328,-27.19561 -7.52333,-42.13595c0.30995,-14.94034 3.58995,-29.10832 9.22975,-41.85842c5.63981,-12.7501 13.63743,-24.08168 23.39638,-33.47108c9.75897,-9.38941 21.27795,-16.83842 34.00359,-21.94183c12.72563,-5.10342 26.66067,-7.86812 41.28534,-7.94317c14.62467,-0.0751 28.55938,2.53224 41.26083,7.24431c12.70145,4.71207 24.16709,11.5339 33.81555,20.03646c9.64847,8.50257 17.47884,18.68937 22.90117,30.21241c5.42232,11.52304 8.43889,24.38332 8.44035,38.28317z"/>
    <circle clip-rule="nonzero" fill="url(#linearGradient4808)" fill-rule="nonzero" stroke-width="2" stroke-miterlimit="4" stroke-dashoffset="0" id="circle4802" cx="1099.607" cy="-338.58513" r="30.80965"/>
    <circle clip-rule="nonzero" fill="url(#gopher-eye)" fill-rule="nonzero" stroke-width="2" stroke-miterlimit="4" stroke-dashoffset="0" r="15.15229" cy="-352.72728" cx="1085.96995" id="circle4804"/>
   </g>
   <g stroke="null" transform="matrix(0.34792350340336164,0,0,0.34792350340336164,-152.42848906518464,249.98583218793868) " id="g4819">
    <path clip-rule="nonzero" fill="url(#gopher-lines)" fill-rule="nonzero" stroke-width="2" stroke-miterlimit="4" stroke-dashoffset="0" d="m1074.50537,-330.4585c-0.44046,14.77191 -4.12869,29.02667 -10.38967,42.25266c-6.26099,13.22599 -15.09198,25.42687 -25.80466,35.99686c-10.71268,10.57 -23.30432,19.50822 -37.11826,26.08983c-13.81394,6.58161 -28.85103,10.80263 -44.50193,11.8618c-15.65091,1.05917 -30.4406,-1.15844 -43.81781,-6.16756c-13.37721,-5.00911 -25.3405,-12.8075 -35.30087,-22.80416c-9.96037,-9.99666 -17.91599,-22.19037 -23.26581,-35.90798c-5.34983,-13.71761 -8.0915,-28.95913 -7.64195,-44.98105c0.44955,-16.02192 4.04447,-31.2937 10.1422,-45.07896c6.09773,-13.78526 14.69591,-26.08175 25.16951,-36.25747c10.4736,-10.17571 22.82245,-18.23043 36.46168,-23.66123c13.63924,-5.4308 28.57214,-8.24285 44.22923,-8.02541c15.6571,0.21745 30.56095,3.42714 44.11009,8.94154c13.54914,5.5144 25.7404,13.33722 35.92568,22.91495c10.18529,9.57774 18.36233,20.91345 23.87736,33.53282c5.51504,12.61936 8.36566,26.52144 7.92521,41.29336z" id="path4810"/>
    <path clip-rule="nonzero" fill="url(#gopher-eye)" fill-rule="nonzero" stroke-width="2" stroke-miterlimit="4" stroke-dashoffset="0" d="m1066.8003,-333.83304c0.001,13.89984 -3.01572,27.53808 -8.51346,40.35257c-5.49774,12.81449 -13.48047,24.80543 -23.37659,35.2527c-9.89612,10.44726 -21.70519,19.34133 -34.78531,25.87862c-13.08011,6.53727 -27.4256,10.71236 -42.3773,11.7667c-14.9517,1.05435 -29.09103,-1.11258 -41.85904,-5.93108c-12.76803,-4.81852 -24.16883,-12.28715 -33.66552,-21.79076c-9.49671,-9.50362 -17.08979,-21.04298 -22.23241,-33.95465c-5.14261,-12.91166 -7.83328,-27.19561 -7.52333,-42.13595c0.30995,-14.94034 3.58995,-29.10832 9.22975,-41.85842c5.63981,-12.7501 13.63743,-24.08168 23.39638,-33.47108c9.75897,-9.38941 21.27795,-16.83842 34.00359,-21.94183c12.72563,-5.10342 26.66067,-7.86812 41.28534,-7.94317c14.62467,-0.0751 28.55938,2.53224 41.26083,7.24431c12.70145,4.71207 24.16709,11.5339 33.81555,20.03646c9.64847,8.50257 17.47884,18.68937 22.90117,30.21241c5.42232,11.52304 8.43889,24.38332 8.44035,38.28317z" id="path4813"/>
    <circle clip-rule="nonzero" fill="url(#linearGradient4821)" fill-rule="nonzero" stroke-width="2" stroke-miterlimit="4" stroke-dashoffset="0" r="30.80965" cy="-334.37007" cx="921.87835" id="circle4815"/>
    <circle clip-rule="nonzero" fill="url(#gopher-eye)" fill-rule="nonzero" stroke-width="2" stroke-miterlimit="4" stroke-dashoffset="0" id="circle4817" cx="908.24129" cy="-348.51222" r="15.15229"/>
   </g>
  </g>
  <g stroke="null" display="inline" id="layer7">
   <g stroke="null" id="g4794">
    <path clip-rule="nonzero" fill="#2e3436" fill-rule="nonzero" stroke-width="10" stroke-miterlimit="4" stroke-dashoffset="0" id="path4779" d="m255.25973,211.71937l5.20074,0.06775l3.04645,-0.06718c0.97171,-0.02144 1.76823,0.43826 2.29924,1.11596c0.53102,0.67772 0.70501,1.61628 0.70363,2.64049l-0.00736,5.79804l0.31181,5.8188c0.05613,1.04797 -0.35333,1.97177 -0.95857,2.64413c-0.60525,0.67234 -1.43996,1.0554 -2.36213,1.07726l-3.07466,0.07291l-6.04029,-0.14122c-1.1585,-0.02709 -2.17311,-0.47881 -2.86487,-1.17259c-0.69174,-0.6938 -1.02394,-1.63725 -0.96987,-2.66694l0.30323,-5.77397l0.40205,-5.76484c0.07152,-1.02611 0.66263,-1.94527 1.40151,-2.60347c0.73887,-0.6582 1.67149,-1.05084 2.60938,-1.04508l-0.00028,-0.00006z"/>
    <path clip-rule="nonzero" fill="#ffffff" fill-rule="nonzero" stroke-width="10" stroke-miterlimit="4" stroke-dashoffset="0" id="path4781" d="m255.95779,213.47451l4.24423,0.05712l2.03721,-0.08305c0.77389,-0.03159 1.4282,0.35666 1.88247,0.91144c0.45427,0.55477 0.65529,1.32374 0.67944,2.16303l0.13638,4.74051l0.34109,4.75284c0.06088,0.84857 -0.23431,1.61247 -0.71236,2.16159c-0.47842,0.54911 -1.15847,0.84619 -1.92581,0.8765l-2.09194,0.08265l-4.80092,-0.10436c-0.90909,-0.0198 -1.72416,-0.38633 -2.29545,-0.95273c-0.57128,-0.5664 -0.87812,-1.33781 -0.86315,-2.18081l0.08387,-4.72154l0.16467,-4.71577c0.02905,-0.83986 0.46362,-1.59356 1.03745,-2.13261c0.57381,-0.53906 1.31673,-0.86519 2.08279,-0.85487l0.00001,0.00005z"/>
    <path clip-rule="nonzero" fill="url(#gopher-lines)" fill-rule="nonzero" stroke-width="10" stroke-miterlimit="4" stroke-dashoffset="0" id="path4783" d="m282.62694,209.31749c-0.14507,1.85869 -1.29007,3.54027 -2.91749,5.0544c-1.62741,1.51412 -3.875,2.85625 -6.47826,3.95564c-2.60326,1.09939 -5.53971,1.94484 -8.51415,2.39655c-2.97445,0.45172 -5.98795,0.50191 -8.94989,0.1448c-2.96193,-0.35714 -5.61456,-1.068 -7.91722,-1.94628c-2.30266,-0.87828 -4.23742,-1.92026 -5.7613,-3.07613c-1.52389,-1.15586 -2.6506,-2.43621 -3.36194,-3.86522c-0.71135,-1.42901 -1.00646,-3.01094 -0.74841,-4.71564c0.25805,-1.70469 1.05711,-3.36707 2.29066,-4.8944c1.23356,-1.52732 2.89255,-2.9178 4.8413,-4.07491c1.94874,-1.15711 4.18391,-2.08017 6.65136,-2.68526c2.46745,-0.60509 5.16977,-0.89271 8.12631,-0.79516c2.95653,0.09757 5.90685,0.56826 8.70808,1.34621c2.80122,0.77793 5.44125,1.8683 7.64173,3.20001c2.20047,1.33172 4.0087,2.86608 5.0643,4.59814c1.08127,1.77417 1.44853,3.77353 1.32493,5.35723z"/>
    <path clip-rule="nonzero" fill="url(#linearGradient4796)" fill-rule="nonzero" stroke-width="10" stroke-miterlimit="4" stroke-dashoffset="0" id="path4785" d="m276.36763,208.90013c-0.25382,1.47642 -1.11759,2.85529 -2.44391,4.09073c-1.32632,1.23544 -3.1136,2.3298 -5.14456,3.20306c-2.03095,0.87326 -4.29552,1.5189 -6.60449,1.85808c-2.30898,0.33918 -4.66485,0.3704 -6.98133,0.08766c-2.31647,-0.28274 -4.38526,-0.84263 -6.18048,-1.55843c-1.79522,-0.71579 -3.30982,-1.58622 -4.4981,-2.55744c-1.18828,-0.97122 -2.05316,-2.04717 -2.56301,-3.21907c-0.50986,-1.17189 -0.66646,-2.44292 -0.40084,-3.7891c0.26562,-1.34619 0.93215,-2.63935 1.91593,-3.81925c0.98377,-1.1799 2.28258,-2.24492 3.8124,-3.12648c1.52982,-0.88156 3.28898,-1.57914 5.22861,-2.03024c1.93963,-0.45111 4.06005,-0.65595 6.35578,-0.56087c2.29571,0.09509 4.56042,0.47977 6.6996,1.09779c2.13919,0.61803 4.14972,1.47092 5.84767,2.50531c1.69797,1.03441 3.0764,2.25069 3.95443,3.57815c0.87803,1.32746 1.25614,2.76367 1.00231,4.24009z"/>
    <path clip-rule="nonzero" fill="url(#gopher-lines)" fill-rule="nonzero" stroke-width="10" stroke-miterlimit="4" stroke-dashoffset="0" id="path4787" d="m271.23366,199.38682c-0.37013,1.05799 -1.17494,1.99755 -2.28844,2.79051c-1.1135,0.79296 -2.53127,1.44082 -4.06958,1.93762c-1.5383,0.4968 -3.1907,0.84406 -4.80768,1.02892c-1.61697,0.18485 -3.19849,0.2064 -4.68043,0.04255c-1.48193,-0.16389 -2.73269,-0.49704 -3.79127,-0.96095c-1.05859,-0.46392 -1.92486,-1.05839 -2.60742,-1.75817c-0.68255,-0.69979 -1.18218,-1.50605 -1.47222,-2.39916c-0.29004,-0.89312 -0.36997,-1.87409 -0.17327,-2.91094c0.1967,-1.03685 0.65544,-2.03062 1.34949,-2.92872c0.69405,-0.89811 1.62274,-1.69991 2.74529,-2.35035c1.12255,-0.65045 2.43894,-1.1492 3.90099,-1.44541c1.46204,-0.29621 3.06994,-0.38962 4.76504,-0.2381c1.6951,0.15153 3.31697,0.533 4.7834,1.08815c1.46642,0.55516 2.77751,1.2839 3.83892,2.12915c1.06142,0.84525 1.87303,1.80753 2.32755,2.82547c0.45452,1.01793 0.54977,2.09147 0.17965,3.14947l0,-0.00003z"/>
   </g>
  </g>
 </g>
</svg>